<svg width="44" height="44" viewBox="0 0 44 44" fill="none" xmlns="http://www.w3.org/2000/svg">
<rect width="44" height="44" rx="16" fill="white" fill-opacity="0.1"/>
<path d="M31.0001 22C31.0001 22.1989 30.9211 22.3897 30.7804 22.5303C30.6398 22.671 30.449 22.75 30.2501 22.75H15.5604L21.0307 28.2194C21.1004 28.289 21.1557 28.3718 21.1934 28.4628C21.2311 28.5539 21.2505 28.6514 21.2505 28.75C21.2505 28.8485 21.2311 28.9461 21.1934 29.0372C21.1557 29.1282 21.1004 29.2109 21.0307 29.2806C20.961 29.3503 20.8783 29.4056 20.7873 29.4433C20.6962 29.481 20.5986 29.5004 20.5001 29.5004C20.4016 29.5004 20.304 29.481 20.2129 29.4433C20.1219 29.4056 20.0392 29.3503 19.9695 29.2806L13.2195 22.5306C13.1497 22.461 13.0944 22.3782 13.0567 22.2872C13.0189 22.1961 12.9995 22.0986 12.9995 22C12.9995 21.9014 13.0189 21.8038 13.0567 21.7128C13.0944 21.6217 13.1497 21.539 13.2195 21.4694L19.9695 14.7194C20.1102 14.5786 20.3011 14.4996 20.5001 14.4996C20.6991 14.4996 20.89 14.5786 21.0307 14.7194C21.1715 14.8601 21.2505 15.051 21.2505 15.25C21.2505 15.449 21.1715 15.6399 21.0307 15.7806L15.5604 21.25H30.2501C30.449 21.25 30.6398 21.329 30.7804 21.4697C30.9211 21.6103 31.0001 21.8011 31.0001 22Z" fill="white"/>
</svg>
