<svg width="20" height="24" viewBox="0 0 20 24" fill="none" xmlns="http://www.w3.org/2000/svg">
<path d="M14.4444 14.2222C15.8761 14.2223 17.2524 14.775 18.2864 15.7652C19.3204 16.7553 19.9323 18.1064 19.9944 19.5367L20 19.7778V20.8889C20.0002 21.4495 19.7884 21.9895 19.4072 22.4006C19.026 22.8117 18.5035 23.0635 17.9444 23.1056L17.7778 23.1111H2.22222C1.66158 23.1113 1.12159 22.8995 0.710502 22.5183C0.299412 22.1371 0.0476037 21.6146 0.00555568 21.0555L0 20.8889V19.7778C8.27139e-05 18.3461 0.552824 16.9698 1.54296 15.9358C2.53309 14.9018 3.88417 14.2899 5.31444 14.2278L5.55556 14.2222H14.4444ZM10 0.888885C11.4734 0.888885 12.8865 1.4742 13.9284 2.51607C14.9702 3.55794 15.5556 4.97102 15.5556 6.44444C15.5556 7.91787 14.9702 9.33094 13.9284 10.3728C12.8865 11.4147 11.4734 12 10 12C8.52658 12 7.1135 11.4147 6.07163 10.3728C5.02976 9.33094 4.44444 7.91787 4.44444 6.44444C4.44444 4.97102 5.02976 3.55794 6.07163 2.51607C7.1135 1.4742 8.52658 0.888885 10 0.888885Z" fill="#535252"/>
</svg>
