<svg width="16" height="16" viewBox="0 0 16 16" fill="none" xmlns="http://www.w3.org/2000/svg">
<path d="M13.2602 2.2764C13.2162 2.26491 12.149 2 10.6755 2C8.86267 2 6.29459 2.40853 4.35418 4.35353C0.94794 7.76797 2.22369 13.0412 2.27982 13.2646C2.30804 13.3767 2.36615 13.479 2.44793 13.5607C2.52972 13.6423 2.63211 13.7001 2.74419 13.7281C2.7882 13.7396 3.84516 14 5.30717 14C7.12447 14 9.69829 13.5908 11.6425 11.6458C15.0456 8.24033 13.78 2.96452 13.7245 2.74174C13.6963 2.62946 13.6382 2.52692 13.5565 2.44499C13.4747 2.36307 13.3723 2.30481 13.2602 2.2764ZM11.004 8.18863L10.1021 9.09123L8.95835 7.94734L7.94669 8.95973L9.08976 10.1043L8.1878 11.0069L7.04473 9.86233L5.90103 11.0069L4.99907 10.1043L6.14278 8.95973L4.99907 7.81456L5.90103 6.91196L7.04473 8.05713L8.0564 7.04474L6.91206 5.90021L7.81401 4.99761L8.95835 6.14214L10.1021 4.99761L11.004 5.90021L9.86031 7.04474L11.004 8.18863Z" fill="white"/>
</svg>
