<svg width="24" height="24" viewBox="0 0 24 24" fill="none" xmlns="http://www.w3.org/2000/svg">
<path d="M22.5203 0.552795C22.4323 0.529815 20.298 0 17.351 0C13.7253 0 8.58919 0.817065 4.70837 4.70706C-2.10412 11.5359 0.447374 22.0825 0.55964 22.5293C0.616087 22.7534 0.732296 22.9581 0.895866 23.1213C1.05944 23.2845 1.26423 23.4003 1.48838 23.4561C1.57641 23.4791 3.69032 24 6.61433 24C10.2489 24 15.3966 23.1817 19.285 19.2917C26.0912 12.4807 23.5601 1.92904 23.4491 1.48348C23.3926 1.25892 23.2765 1.05384 23.113 0.889986C22.9494 0.726133 22.7447 0.609617 22.5203 0.552795ZM18.008 12.3773L16.2041 14.1825L13.9167 11.8947L11.8934 13.9195L14.1795 16.2085L12.3756 18.0137L10.0895 15.7247L7.80205 18.0137L5.99815 16.2085L8.28556 13.9195L5.99815 11.6291L7.80205 9.82393L10.0895 12.1143L12.1128 10.0895L9.82411 7.80042L11.628 5.99521L13.9167 8.28427L16.2041 5.99521L18.008 7.80042L15.7206 10.0895L18.008 12.3773Z" fill="#535252"/>
</svg>
