<svg width="20" height="20" viewBox="0 0 20 20" fill="none" xmlns="http://www.w3.org/2000/svg">
<path fill-rule="evenodd" clip-rule="evenodd" d="M5.68616 2.01233C5.83297 2.00078 6.01668 2 6.5 2H10.95C12.3905 2 13.4097 2.0008 14.2061 2.06694C14.9905 2.13207 15.4686 2.25538 15.8439 2.45035C16.5745 2.82985 17.1702 3.42553 17.5497 4.1561C17.7446 4.53142 17.8679 5.00955 17.9331 5.79391C17.9992 6.59025 18 7.60949 18 9.05V14.5C18 16.433 16.433 18 14.5 18H11.9444C11.4228 18 11 17.5772 11 17.0556V16.5C11 13.4624 8.53757 11 5.5 11C3.567 11 2 9.433 2 7.5V6.5C2 6.01668 2.00078 5.83297 2.01233 5.68616C2.1667 3.72466 3.72466 2.1667 5.68616 2.01233ZM0 9.64035C-1.71661e-05 10.2412 -2.67029e-05 10.599 0.0266228 10.9447C0.194979 13.1287 1.15401 15.1762 2.72397 16.7037C2.97249 16.9455 3.24741 17.1746 3.709 17.5592L3.77082 17.6107C4.13088 17.9108 4.3455 18.0896 4.56704 18.2524C5.9611 19.2768 7.62087 19.8778 9.34763 19.9833C9.62202 20 9.90138 20 10.37 20H14.5C17.5376 20 20 17.5376 20 14.5L20 9.00549C20 7.61949 20 6.51721 19.9262 5.62839C19.8506 4.71811 19.6925 3.94253 19.3245 3.23415C18.7552 2.13829 17.8617 1.24477 16.7658 0.67552C16.0575 0.307549 15.2819 0.149392 14.3716 0.0737976C13.4828 -1.47969e-05 12.3805 -8.12003e-06 10.9945 2.24617e-07L6.45018 -1.68273e-06C6.03355 -2.96969e-05 5.76487 -4.75775e-05 5.52925 0.0184964C2.58699 0.250057 0.250057 2.58699 0.0184956 5.52925C-4.76837e-05 5.76488 -2.86102e-05 6.03356 -3.8147e-06 6.45022L0 9.64035ZM9.14124 17.9592C7.9168 17.8263 6.74695 17.3724 5.75134 16.6408C5.5849 16.5185 5.41906 16.3808 5.02429 16.0519C4.51761 15.6296 4.30528 15.4518 4.11865 15.2702C3.16714 14.3445 2.50415 13.1731 2.19584 11.8973C3.11578 12.5896 4.25996 13 5.5 13C7.433 13 9 14.567 9 16.5V17.0556C9 17.3708 9.04954 17.6744 9.14124 17.9592Z" fill="white" fill-opacity="0.2"/>
</svg>
