<svg width="18" height="18" viewBox="0 0 18 18" fill="none" xmlns="http://www.w3.org/2000/svg">
<path d="M7.4181 15.4372C7.7421 15.4372 7.99828 15.2942 8.17892 15.0155L15.2982 3.80571C15.4339 3.58714 15.4943 3.4216 15.4943 3.24803C15.4943 2.83371 15.2153 2.56274 14.801 2.56274C14.5072 2.56274 14.334 2.66046 14.153 2.94685L7.38788 13.7272L3.87724 9.13178C3.68921 8.86821 3.50824 8.76278 3.22956 8.76278C2.80753 8.76278 2.50635 9.05657 2.50635 9.47089C2.50635 9.64414 2.58156 9.83989 2.72492 10.0205L6.63446 15.0007C6.86781 15.2945 7.09442 15.4372 7.4181 15.4372Z" fill="white"/>
</svg>
