<svg width="20" height="20" viewBox="0 0 20 20" fill="none" xmlns="http://www.w3.org/2000/svg">
<path d="M18.6879 12.0214C18.9966 11.7825 19.2464 11.4762 19.4183 11.1258C19.5902 10.7754 19.6795 10.3903 19.6795 10.0001C19.6795 9.6098 19.5902 9.22471 19.4183 8.87433C19.2464 8.52396 18.9966 8.21759 18.6879 7.97873C14.6913 4.88623 10.2285 2.44871 5.46661 0.757395L4.59594 0.448062C2.93194 -0.142605 1.17328 0.982728 0.947942 2.7014C0.318459 7.54681 0.318459 12.4533 0.947942 17.2987C1.17461 19.0174 2.93194 20.1427 4.59594 19.5521L5.46661 19.2427C10.2285 17.5514 14.6913 15.1139 18.6879 12.0214Z" fill="white"/>
</svg>
