<svg width="28" height="28" viewBox="0 0 28 28" fill="none" xmlns="http://www.w3.org/2000/svg">
<path d="M18.4444 16.2222C19.8761 16.2223 21.2524 16.7751 22.2864 17.7652C23.3204 18.7553 23.9323 20.1064 23.9944 21.5367L24 21.7778V22.8889C24.0002 23.4496 23.7884 23.9895 23.4072 24.4006C23.026 24.8117 22.5035 25.0635 21.9444 25.1056L21.7778 25.1111H6.22222C5.66158 25.1113 5.12159 24.8996 4.7105 24.5184C4.29941 24.1372 4.0476 23.6146 4.00556 23.0556L4 22.8889V21.7778C4.00008 20.3462 4.55282 18.9698 5.54296 17.9358C6.53309 16.9018 7.88417 16.2899 9.31444 16.2278L9.55556 16.2222H18.4444ZM14 2.88892C15.4734 2.88892 16.8865 3.47423 17.9284 4.5161C18.9702 5.55797 19.5556 6.97105 19.5556 8.44447C19.5556 9.9179 18.9702 11.331 17.9284 12.3728C16.8865 13.4147 15.4734 14 14 14C12.5266 14 11.1135 13.4147 10.0716 12.3728C9.02976 11.331 8.44444 9.9179 8.44444 8.44447C8.44444 6.97105 9.02976 5.55797 10.0716 4.5161C11.1135 3.47423 12.5266 2.88892 14 2.88892Z" fill="#E60049"/>
</svg>
